# Blender 5.0.1
# www.blender.org
mtllib птичка.mtl
o Куб
v -1.872162 -0.304805 -0.261027
v -1.986469 0.292799 -0.220387
v 2.108173 -0.227523 -0.219028
v 2.108173 0.227523 -0.219028
v -1.011843 -0.581359 -0.583192
v -1.041152 0.573355 -0.566937
v 0.828494 0.559080 -0.560875
v 0.828494 -0.559080 -0.560875
v -2.135248 0.096042 -0.308791
v 2.166110 -0.000000 -0.238656
v -1.227582 0.000000 -1.000000
v 0.714435 0.000000 -0.883176
v -3.640547 0.021681 -1.654957
v -1.582761 -0.011370 -5.217752
v 0.611142 -0.025982 -4.642019
v 1.675585 -0.011270 -2.652297
v 1.214205 0.064402 -1.671194
v -0.740148 -0.009823 -1.751808
v -0.381377 -0.018000 -3.133821
v -1.085908 -0.032675 -5.475854
v 0.048978 0.012830 -2.239514
v -0.002028 -0.009815 -3.590412
v 2.384790 0.000000 -0.164785
v -1.916477 -0.311073 0.000000
v -2.047882 0.286247 0.000000
v -1.958675 -0.141431 -0.303186
v -1.600654 -0.441192 -0.423858
v 1.656578 0.379860 -0.381223
v 2.175088 -0.117398 -0.237964
v 2.208295 -0.216719 -0.005684
v 2.208295 0.216719 -0.005684
v -0.138683 -0.630778 -0.635707
v -1.683575 0.421943 -0.382202
v -1.038195 0.656958 0.000000
v -1.004489 -0.670964 0.000000
v -1.044766 -0.329312 -0.845533
v -0.142347 0.629777 -0.633675
v 1.656578 -0.379860 -0.381223
v 0.855801 0.642942 0.000000
v 0.855801 -0.642942 0.000000
v 0.765977 -0.321471 -0.792814
v -2.037934 0.192212 -0.263562
v 2.175088 0.117398 -0.237964
v -1.061619 0.334648 -0.831309
v 0.765977 0.321471 -0.792814
v -0.256574 0.000000 -0.941588
v -1.672457 0.028012 -0.631404
v 2.375002 0.000000 -0.008059
v 1.574074 0.000000 -0.543842
v -2.135248 0.096042 0.000000
v -3.866906 0.011560 -0.123639
v -2.996601 0.053225 -1.511896
v -0.271798 -0.030880 -5.213133
v 0.932837 0.047924 -1.291921
v -0.964873 -0.013021 -4.257630
v 1.325820 -0.026132 -3.647540
v 1.553741 0.031925 -2.045131
v -1.022420 -0.004422 -1.342911
v -0.396850 -0.015998 -2.305468
v 0.453574 0.032273 -1.967707
v 0.715066 -0.009639 -3.252108
v -1.596147 -0.022190 -5.555465
v -0.285678 0.002513 -2.003560
v -0.313415 -0.013004 -3.492870
v 0.095127 0.002785 -2.779078
v -0.438664 -0.021551 -4.510739
v 2.384790 0.000000 -0.011682
v -2.149000 0.167612 0.000000
v 1.608333 0.217046 -0.527322
v 2.374214 0.082184 -0.007513
v 1.691988 -0.432431 -0.002415
v -1.696707 0.474257 0.000000
v -1.600657 -0.510393 0.000000
v -1.677168 0.259882 -0.569054
v 1.691987 0.432430 -0.002415
v -0.186789 0.362639 -0.901407
v -0.184682 -0.362180 -0.903185
v -1.627677 -0.235932 -0.607407
v 2.374214 -0.082184 -0.007513
v 1.608332 -0.217046 -0.527322
v -2.057163 -0.111291 0.000000
v -3.026173 0.052577 -0.063611
v -0.834312 -0.017401 -4.499820
v -0.059564 0.018190 -1.481902
v -0.230668 -0.007328 -2.646884
v 0.717439 0.015836 -2.517203
v 0.336838 -0.024114 -4.188595
v 2.205943 -0.217002 0.000000
v 2.205943 0.217002 0.000000
v 2.368974 0.000000 0.000000
v -3.849821 0.012467 0.000000
v 2.384790 0.000000 0.000000
v 2.368598 0.083288 0.000000
v 1.691891 -0.432101 0.000000
v -0.125175 0.723793 0.000000
v 1.691890 0.432101 0.000000
v -0.120963 -0.725543 0.000000
v 2.368598 -0.083288 0.000000
v -3.025270 0.052656 0.000000
v -1.872162 -0.304805 0.261027
v -1.986469 0.292799 0.220387
v 2.108173 -0.227523 0.219028
v 2.108173 0.227523 0.219028
v -1.011843 -0.581359 0.583192
v -1.041152 0.573355 0.566937
v 0.828494 0.559080 0.560875
v 0.828494 -0.559080 0.560875
v -2.135248 0.096042 0.308791
v 2.166110 -0.000000 0.238656
v -1.227582 0.000000 1.000000
v 0.714435 0.000000 0.883176
v -3.640547 0.021681 1.654957
v -1.582761 -0.011370 5.217752
v 0.611142 -0.025982 4.642019
v 1.675585 -0.011270 2.652297
v 1.214205 0.064402 1.671194
v -0.740148 -0.009823 1.751808
v -0.381377 -0.018000 3.133821
v -1.085908 -0.032675 5.475854
v 0.048978 0.012830 2.239514
v -0.002028 -0.009815 3.590412
v 2.384790 0.000000 0.164785
v -1.958675 -0.141431 0.303186
v -1.600654 -0.441192 0.423858
v 1.656578 0.379860 0.381223
v 2.175088 -0.117398 0.237964
v 2.208295 -0.216719 0.005684
v 2.208295 0.216719 0.005684
v -0.138683 -0.630778 0.635707
v -1.683575 0.421943 0.382202
v -1.044766 -0.329312 0.845533
v -0.142347 0.629777 0.633675
v 1.656578 -0.379860 0.381223
v 0.765977 -0.321471 0.792814
v -2.037934 0.192212 0.263562
v 2.175088 0.117398 0.237964
v -1.061619 0.334648 0.831309
v 0.765977 0.321471 0.792814
v -0.256574 0.000000 0.941588
v -1.672457 0.028012 0.631404
v 2.375002 0.000000 0.008059
v 1.574074 0.000000 0.543842
v -3.866906 0.011560 0.123639
v -2.996601 0.053225 1.511896
v -0.271798 -0.030880 5.213133
v 0.932837 0.047924 1.291921
v -0.964873 -0.013021 4.257630
v 1.325820 -0.026132 3.647540
v 1.553741 0.031925 2.045131
v -1.022420 -0.004422 1.342911
v -0.396850 -0.015998 2.305468
v 0.453574 0.032273 1.967707
v 0.715066 -0.009639 3.252108
v -1.596147 -0.022190 5.555465
v -0.285678 0.002513 2.003560
v -0.313415 -0.013004 3.492870
v 0.095127 0.002785 2.779078
v -0.438664 -0.021551 4.510739
v 2.384790 0.000000 0.011682
v 1.608333 0.217046 0.527322
v 2.374214 0.082184 0.007513
v 1.691988 -0.432431 0.002415
v -1.677168 0.259882 0.569054
v 1.691987 0.432430 0.002415
v -0.186789 0.362639 0.901407
v -0.184682 -0.362180 0.903185
v -1.627677 -0.235932 0.607407
v 2.374214 -0.082184 0.007513
v 1.608332 -0.217046 0.527322
v -3.026173 0.052577 0.063611
v -0.834312 -0.017401 4.499820
v -0.059564 0.018190 1.481902
v -0.230668 -0.007328 2.646884
v 0.717439 0.015836 2.517203
v 0.336838 -0.024114 4.188595
vn -0.7745 0.5860 -0.2383
vn -0.8687 0.4727 -0.1482
vn 0.3391 0.1309 -0.9316
vn 0.2991 0.6100 -0.7338
vn 0.4520 0.4840 -0.7493
vn 0.4556 -0.0131 -0.8901
vn 0.7476 -0.0266 -0.6636
vn 0.6557 0.6558 -0.3741
vn 0.2409 -0.9581 -0.1552
vn 0.3728 -0.9157 -0.1499
vn 0.2421 -0.9600 0.1407
vn -0.2649 0.9541 -0.1395
vn -0.4575 0.8806 -0.1235
vn -0.5185 -0.8456 -0.1267
vn -0.2620 -0.9536 -0.1485
vn -0.5566 0.3965 -0.7300
vn -0.5737 0.5931 -0.5649
vn -0.3463 0.7067 -0.6169
vn -0.4723 0.4448 -0.7610
vn 0.3728 0.9157 -0.1499
vn 0.2409 0.9581 -0.1552
vn -0.0105 0.2902 -0.9569
vn -0.0871 0.7273 -0.6808
vn 0.1077 0.6878 -0.7179
vn 0.0888 0.1715 -0.9812
vn -0.0781 -0.7169 -0.6928
vn -0.0045 -0.2702 -0.9628
vn 0.0898 -0.1687 -0.9816
vn 0.1097 -0.6861 -0.7192
vn -0.6359 -0.5359 -0.5554
vn -0.6268 -0.3187 -0.7111
vn -0.4977 -0.4193 -0.7592
vn -0.3539 -0.6763 -0.6460
vn 0.6557 -0.6558 -0.3741
vn 0.7476 0.0266 -0.6636
vn 0.2991 -0.6100 -0.7338
vn 0.3391 -0.1309 -0.9316
vn 0.4556 0.0131 -0.8901
vn 0.4520 -0.4840 -0.7493
vn -0.8615 -0.4947 -0.1143
vn -0.8232 -0.5366 -0.1856
vn 0.0489 -0.9988 0.0005
vn 0.0487 -0.9988 0.0006
vn -0.0001 -1.0000 0.0084
vn 0.0009 -1.0000 -0.0007
vn -0.0278 -0.9994 0.0206
vn -0.0177 -0.9996 0.0202
vn 0.0227 -0.9980 -0.0596
vn 0.0113 -0.9999 -0.0105
vn 0.0314 -0.9992 0.0245
vn 0.0396 -0.9991 0.0127
vn 0.0359 -0.9994 -0.0023
vn 0.0423 -0.9989 0.0204
vn 0.0682 -0.9970 0.0360
vn 0.0642 -0.9979 0.0020
vn 0.0239 -0.9997 0.0084
vn 0.0036 -0.9985 0.0552
vn 0.0165 -0.9994 0.0290
vn -0.0012 -0.9997 0.0247
vn -0.0213 -0.9986 0.0492
vn -0.0138 -0.9997 0.0204
vn -0.0097 -0.9998 0.0184
vn -0.0049 -0.9999 0.0121
vn -0.0007 -1.0000 0.0037
vn 0.0487 -0.9988 0.0005
vn 0.8010 0.0037 0.5987
vn 0.8010 -0.0037 0.5987
vn 0.0840 -0.9851 -0.1502
vn 0.2421 0.9600 0.1407
vn 0.0821 0.9853 -0.1498
vn -0.0629 -0.9870 -0.1480
vn -0.0725 0.9868 -0.1448
vn 0.6065 0.7409 0.2884
vn 0.3832 0.9157 0.1212
vn 0.3832 -0.9157 0.1212
vn 0.6065 -0.7409 0.2884
vn -0.7745 0.5860 0.2383
vn -0.8687 0.4727 0.1482
vn 0.3391 0.1309 0.9316
vn 0.2991 0.6100 0.7338
vn 0.4520 0.4840 0.7493
vn 0.4556 -0.0131 0.8901
vn 0.7476 -0.0266 0.6636
vn 0.6557 0.6558 0.3741
vn 0.2409 -0.9581 0.1552
vn 0.3728 -0.9157 0.1499
vn 0.2421 -0.9600 -0.1407
vn -0.2649 0.9541 0.1395
vn -0.4575 0.8806 0.1235
vn -0.5185 -0.8456 0.1267
vn -0.2620 -0.9536 0.1485
vn -0.5566 0.3965 0.7300
vn -0.5737 0.5931 0.5649
vn -0.3463 0.7067 0.6169
vn -0.4723 0.4448 0.7610
vn 0.3728 0.9157 0.1499
vn 0.2409 0.9581 0.1552
vn -0.0105 0.2902 0.9569
vn -0.0871 0.7273 0.6808
vn 0.1077 0.6878 0.7179
vn 0.0888 0.1715 0.9812
vn -0.0781 -0.7169 0.6928
vn -0.0045 -0.2702 0.9628
vn 0.0898 -0.1687 0.9816
vn 0.1097 -0.6861 0.7192
vn -0.6359 -0.5359 0.5554
vn -0.6268 -0.3187 0.7111
vn -0.4977 -0.4193 0.7592
vn -0.3539 -0.6763 0.6460
vn 0.6557 -0.6558 0.3741
vn 0.7476 0.0266 0.6636
vn 0.2991 -0.6100 0.7338
vn 0.3391 -0.1309 0.9316
vn 0.4556 0.0131 0.8901
vn 0.4520 -0.4840 0.7493
vn -0.8615 -0.4947 0.1143
vn -0.8232 -0.5366 0.1856
vn 0.0489 -0.9988 -0.0005
vn 0.0487 -0.9988 -0.0006
vn -0.0001 -1.0000 -0.0084
vn 0.0009 -1.0000 0.0007
vn -0.0278 -0.9994 -0.0206
vn -0.0177 -0.9996 -0.0202
vn 0.0227 -0.9980 0.0596
vn 0.0113 -0.9999 0.0105
vn 0.0314 -0.9992 -0.0245
vn 0.0396 -0.9991 -0.0127
vn 0.0359 -0.9994 0.0023
vn 0.0423 -0.9989 -0.0204
vn 0.0682 -0.9970 -0.0360
vn 0.0642 -0.9979 -0.0020
vn 0.0239 -0.9997 -0.0084
vn 0.0036 -0.9985 -0.0552
vn 0.0165 -0.9994 -0.0290
vn -0.0012 -0.9997 -0.0247
vn -0.0213 -0.9986 -0.0492
vn -0.0138 -0.9997 -0.0204
vn -0.0097 -0.9998 -0.0184
vn -0.0049 -0.9999 -0.0121
vn -0.0007 -1.0000 -0.0037
vn 0.0487 -0.9988 -0.0005
vn 0.8010 0.0037 -0.5987
vn 0.8010 -0.0037 -0.5987
vn 0.0840 -0.9851 0.1502
vn 0.2421 0.9600 -0.1407
vn 0.0821 0.9853 0.1498
vn -0.0629 -0.9870 0.1480
vn -0.0725 0.9868 0.1448
vn 0.6065 0.7409 -0.2884
vn 0.3832 0.9157 -0.1212
vn 0.3832 -0.9157 -0.1212
vn 0.6065 -0.7409 -0.2884
vt -6.713317 8.831578
vt -6.971787 8.845246
vt -6.971788 8.585795
vt -6.713318 8.149957
vt -6.454846 8.817908
vt -6.454846 7.714118
vt 0.877845 7.071622
vt -0.731845 6.978421
vt -0.152482 5.760192
vt 0.877845 5.881015
vt -2.770694 6.785801
vt -1.225725 5.629428
vt 0.319244 4.473053
vt 0.598545 4.581730
vt 0.877845 4.690406
vt -2.175886 0.227990
vt -1.980534 0.229296
vt -1.937346 0.788399
vt -2.204234 0.789386
vt -1.785182 0.230601
vt -1.324952 0.793758
vt -0.599769 -2.820215
vt -1.685231 -4.370750
vt -1.675725 -6.474337
vt -0.504710 -6.470209
vt -2.770693 -5.921284
vt -2.770693 -6.479844
vt -1.675785 -6.487516
vt 7.813641 -2.820215
vt 9.086449 -0.998205
vt 9.086448 0.918800
vt 7.813642 0.754345
vt 10.359255 0.823804
vt 10.359255 1.083255
vt 8.310858 -7.327053
vt 9.486446 -8.722431
vt 9.486445 -6.456779
vt 8.310858 -6.370308
vt 10.662035 -10.117809
vt 10.662036 -6.543250
vt 1.759942 7.591827
vt 1.318894 7.342351
vt 2.893888 6.815282
vt 3.114413 7.847601
vt 0.877845 7.092875
vt 2.673364 5.782963
vt 4.468883 4.473053
vt 4.468883 6.288214
vt 4.468883 8.103374
vt 0.066998 -1.294807
vt 0.113022 0.808150
vt 1.919180 -2.820215
vt 1.919180 0.826419
vt 0.877845 9.633595
vt -0.946424 9.633596
vt -0.924966 8.286125
vt 0.877845 8.352609
vt -2.770694 9.633596
vt -2.770694 8.209699
vt 7.795362 8.125400
vt 7.795362 6.301130
vt 9.147805 6.301130
vt 9.219260 8.125400
vt 7.795361 4.476861
vt 9.076348 4.476861
vt 10.357335 4.476861
vt 10.500248 6.301130
vt 10.643159 8.125400
vt 4.956964 6.325292
vt 5.021691 5.401076
vt 6.408526 6.102323
vt 6.376163 7.472011
vt 5.086420 4.476861
vt 6.440891 4.732635
vt 7.795362 4.988408
vt 7.795361 6.803570
vt 7.795362 8.618731
vt -2.770694 0.247600
vt -2.473290 0.237795
vt -2.476125 0.796413
vt -2.770694 0.805910
vt -9.714381 11.104816
vt -9.714381 9.409469
vt -8.364605 9.076365
vt -8.343084 10.071258
vt -9.714382 7.714120
vt -8.386127 8.081473
vt -7.057870 8.448827
vt -7.014829 8.743262
vt -6.971788 9.037699
vt 1.800537 9.217311
vt 0.877844 9.207163
vt 0.877844 8.103373
vt 1.800537 8.187045
vt 2.723230 9.227460
vt 2.723230 8.270717
vt -6.199124 -7.820438
vt -6.900642 -7.820438
vt -6.900642 -8.521956
vt -6.199125 -8.521957
vt -6.900643 -9.223475
vt -6.199125 -9.223475
vt 0.302936 -0.100492
vt 1.036615 -0.100492
vt 1.036615 0.633188
vt 0.302936 0.633188
vt 1.770295 -0.100492
vt 1.770295 0.633188
vt 1.770295 1.366867
vt 1.036615 1.366867
vt 0.302936 1.366867
vt 1.036616 1.366867
vt 1.385500 1.113387
vt 1.036615 0.633187
vt 0.687731 1.113388
vt 1.734385 0.859906
vt 1.601123 0.449767
vt 1.467861 0.039628
vt 1.036615 0.039628
vt 0.605369 0.039628
vt 0.472107 0.449768
vt 0.338846 0.859908
vt 0.687731 1.113388
vt 1.036615 0.633188
vt -6.931378 -8.521956
vt -6.956139 -9.223475
vt -1.938699 0.805871
vt -2.203293 0.807810
vt -2.476036 0.813901
vt 0.827906 -2.820743
vt 0.837397 -6.463355
vt 0.112733 0.821321
vt 5.112257 -2.820734
vt 3.683919 -2.820734
vt 3.683919 -6.463423
vt 5.112258 -6.469272
vt 2.255581 -2.821270
vt 2.255581 -6.469540
vt 2.255580 -2.820734
vt 2.255580 -6.469272
vt -1.336997 0.808243
vt -2.770693 -6.494462
vt -2.770694 0.820521
s 0
usemtl Материал.001
f 68/1/1 25/2/1 2/3/1 42/4/1
f 50/5/2 68/1/2 42/4/2 9/6/2
f 12/7/3 45/8/3 69/9/3 49/10/3
f 45/8/4 7/11/4 28/12/4 69/9/4
f 69/9/5 28/12/5 4/13/5 43/14/5
f 49/10/6 69/9/6 43/14/6 10/15/6
f 10/16/7 43/17/7 70/18/7 48/19/7
f 43/17/8 4/20/8 31/21/8 70/18/8
f 8/22/9 38/23/9 71/24/9 40/25/9
f 38/23/10 3/26/10 30/27/10 71/24/10
f 40/25/11 71/24/11 94/28/11
f 6/29/12 33/30/12 72/31/12 34/32/12
f 33/30/13 2/33/13 25/34/13 72/31/13
f 1/35/14 27/36/14 73/37/14 24/38/14
f 27/36/15 5/39/15 35/40/15 73/37/15
f 9/41/16 42/42/16 74/43/16 47/44/16
f 42/42/17 2/45/17 33/46/17 74/43/17
f 74/43/18 33/46/18 6/47/18 44/48/18
f 47/44/19 74/43/19 44/48/19 11/49/19
f 4/20/20 28/50/20 75/51/20 31/21/20
f 28/50/21 7/52/21 39/53/21 75/51/21
f 11/54/22 44/55/22 76/56/22 46/57/22
f 44/55/23 6/58/23 37/59/23 76/56/23
f 76/56/24 37/59/24 7/11/24 45/8/24
f 46/57/25 76/56/25 45/8/25 12/7/25
f 5/60/26 36/61/26 77/62/26 32/63/26
f 36/61/27 11/64/27 46/65/27 77/62/27
f 77/62/28 46/65/28 12/66/28 41/67/28
f 32/63/29 77/62/29 41/67/29 8/68/29
f 1/69/30 26/70/30 78/71/30 27/72/30
f 26/70/31 9/73/31 47/74/31 78/71/31
f 78/71/32 47/74/32 11/75/32 36/76/32
f 27/72/33 78/71/33 36/76/33 5/77/33
f 3/78/34 29/79/34 79/80/34 30/81/34
f 29/79/35 10/16/35 48/19/35 79/80/35
f 8/82/36 41/83/36 80/84/36 38/85/36
f 41/83/37 12/86/37 49/87/37 80/84/37
f 80/84/38 49/87/38 10/88/38 29/89/38
f 38/85/39 80/84/39 29/89/39 3/90/39
f 81/91/40 50/92/40 9/93/40 26/94/40
f 24/95/41 81/91/41 26/94/41 1/96/41
f 9/97/42 50/98/42 82/99/42 52/100/42
f 52/100/43 82/99/43 51/101/43 13/102/43
f 22/103/44 64/104/44 83/105/44 66/106/44
f 64/104/45 19/107/45 55/108/45 83/105/45
f 83/105/46 55/108/46 14/109/46 62/110/46
f 66/106/47 83/105/47 62/110/47 20/111/47
f 12/112/48 46/113/48 84/114/48 54/115/48
f 11/116/49 58/117/49 84/114/49 46/113/49
f 18/118/50 63/119/50 84/114/50 58/117/50
f 21/120/51 60/121/51 84/114/51 63/119/51
f 17/122/52 54/123/52 84/114/52 60/121/52
f 21/103/53 63/104/53 85/124/53 65/106/53
f 63/104/54 18/107/54 59/108/54 85/124/54
f 85/124/55 59/108/55 19/109/55 64/110/55
f 65/106/56 85/124/56 64/110/56 22/111/56
f 17/103/57 60/104/57 86/124/57 57/106/57
f 60/104/58 21/107/58 65/108/58 86/124/58
f 86/124/59 65/108/59 22/109/59 61/110/59
f 57/106/60 86/124/60 61/110/60 16/111/60
f 16/103/61 61/104/61 87/124/61 56/106/61
f 61/104/62 22/107/62 66/108/62 87/124/62
f 87/124/63 66/108/63 20/109/63 53/110/63
f 56/106/64 87/124/64 53/110/64 15/111/64
f 82/99/43 99/125/43 91/126/43 51/101/43
f 82/99/65 50/98/65 99/125/65
f 48/19/66 70/18/66 93/127/66 90/128/66
f 79/80/67 48/19/67 90/128/67 98/129/67
f 32/130/68 8/22/68 40/25/68 97/131/68
f 75/51/69 39/53/69 96/132/69
f 7/133/70 37/134/70 95/135/70 39/136/70
f 5/137/71 32/130/71 97/131/71 35/138/71
f 37/134/72 6/139/72 34/140/72 95/135/72
f 70/18/73 31/21/73 89/141/73 93/127/73
f 31/21/74 75/51/74 96/132/74 89/141/74
f 71/24/75 30/27/75 88/142/75 94/28/75
f 30/81/76 79/80/76 98/129/76 88/143/76
f 68/1/77 135/4/77 101/3/77 25/2/77
f 50/5/78 108/6/78 135/4/78 68/1/78
f 111/7/79 142/10/79 160/9/79 138/8/79
f 138/8/80 160/9/80 125/12/80 106/11/80
f 160/9/81 136/14/81 103/13/81 125/12/81
f 142/10/82 109/15/82 136/14/82 160/9/82
f 109/16/83 141/19/83 161/18/83 136/17/83
f 136/17/84 161/18/84 128/21/84 103/20/84
f 107/22/85 40/25/85 162/24/85 133/23/85
f 133/23/86 162/24/86 127/27/86 102/26/86
f 40/25/87 94/28/87 162/24/87
f 105/29/88 34/32/88 72/31/88 130/30/88
f 130/30/89 72/31/89 25/34/89 101/33/89
f 100/35/90 24/38/90 73/37/90 124/36/90
f 124/36/91 73/37/91 35/40/91 104/39/91
f 108/41/92 140/44/92 163/43/92 135/42/92
f 135/42/93 163/43/93 130/46/93 101/45/93
f 163/43/94 137/48/94 105/47/94 130/46/94
f 140/44/95 110/49/95 137/48/95 163/43/95
f 103/20/96 128/21/96 164/51/96 125/50/96
f 125/50/97 164/51/97 39/53/97 106/52/97
f 110/54/98 139/57/98 165/56/98 137/55/98
f 137/55/99 165/56/99 132/59/99 105/58/99
f 165/56/100 138/8/100 106/11/100 132/59/100
f 139/57/101 111/7/101 138/8/101 165/56/101
f 104/60/102 129/63/102 166/62/102 131/61/102
f 131/61/103 166/62/103 139/65/103 110/64/103
f 166/62/104 134/67/104 111/66/104 139/65/104
f 129/63/105 107/68/105 134/67/105 166/62/105
f 100/69/106 124/72/106 167/71/106 123/70/106
f 123/70/107 167/71/107 140/74/107 108/73/107
f 167/71/108 131/76/108 110/75/108 140/74/108
f 124/72/109 104/77/109 131/76/109 167/71/109
f 102/78/110 127/81/110 168/80/110 126/79/110
f 126/79/111 168/80/111 141/19/111 109/16/111
f 107/82/112 133/85/112 169/84/112 134/83/112
f 134/83/113 169/84/113 142/87/113 111/86/113
f 169/84/114 126/89/114 109/88/114 142/87/114
f 133/85/115 102/90/115 126/89/115 169/84/115
f 81/91/116 123/94/116 108/93/116 50/92/116
f 24/95/117 100/96/117 123/94/117 81/91/117
f 108/97/118 144/100/118 170/99/118 50/98/118
f 144/100/119 112/102/119 143/101/119 170/99/119
f 121/103/120 158/106/120 171/105/120 156/104/120
f 156/104/121 171/105/121 147/108/121 118/107/121
f 171/105/122 154/110/122 113/109/122 147/108/122
f 158/106/123 119/111/123 154/110/123 171/105/123
f 111/112/124 146/115/124 172/114/124 139/113/124
f 110/116/125 139/113/125 172/114/125 150/117/125
f 117/118/126 150/117/126 172/114/126 155/119/126
f 120/120/127 155/119/127 172/114/127 152/121/127
f 116/122/128 152/121/128 172/114/128 146/123/128
f 120/103/129 157/106/129 173/124/129 155/104/129
f 155/104/130 173/124/130 151/108/130 117/107/130
f 173/124/131 156/110/131 118/109/131 151/108/131
f 157/106/132 121/111/132 156/110/132 173/124/132
f 116/103/133 149/106/133 174/124/133 152/104/133
f 152/104/134 174/124/134 157/108/134 120/107/134
f 174/124/135 153/110/135 121/109/135 157/108/135
f 149/106/136 115/111/136 153/110/136 174/124/136
f 115/103/137 148/106/137 175/124/137 153/104/137
f 153/104/138 175/124/138 158/108/138 121/107/138
f 175/124/139 145/110/139 119/109/139 158/108/139
f 148/106/140 114/111/140 145/110/140 175/124/140
f 170/99/119 143/101/119 91/126/119 99/125/119
f 170/99/141 99/125/141 50/98/141
f 141/19/142 90/128/142 93/127/142 161/18/142
f 168/80/143 98/129/143 90/128/143 141/19/143
f 129/130/144 97/131/144 40/25/144 107/22/144
f 164/51/145 96/132/145 39/53/145
f 106/133/146 39/136/146 95/135/146 132/134/146
f 104/137/147 35/138/147 97/131/147 129/130/147
f 132/134/148 95/135/148 34/140/148 105/139/148
f 161/18/149 93/127/149 89/141/149 128/21/149
f 128/21/150 89/141/150 96/132/150 164/51/150
f 162/24/151 94/28/151 88/142/151 127/27/151
f 127/81/152 88/143/152 98/129/152 168/80/152
l 23 67
l 67 92
l 122 159
l 159 92
